<svg xmlns="http://www.w3.org/2000/svg" viewBox="0 0 200 200" width="200" height="200">
  <defs>
    <linearGradient id="mainGrad" x1="0%" y1="0%" x2="100%" y2="100%">
      <stop offset="0%" style="stop-color:#00ffcc;stop-opacity:1" />
      <stop offset="50%" style="stop-color:#00d4aa;stop-opacity:1" />
      <stop offset="100%" style="stop-color:#1bb9a8;stop-opacity:1" />
    </linearGradient>
    
    <radialGradient id="bgGrad" cx="50%" cy="50%">
      <stop offset="0%" style="stop-color:#1d2951;stop-opacity:0.3" />
      <stop offset="100%" style="stop-color:#0a0e1a;stop-opacity:0.9" />
    </radialGradient>
    
    <filter id="glow">
      <feGaussianBlur in="SourceGraphic" stdDeviation="3" result="blur"/>
      <feColorMatrix in="blur" type="matrix" values="0 0 0 0 0
                                                       0 1 1 0 0
                                                       0 0.8 0.8 0 0
                                                       0 0 0 1 0"/>
      <feMerge>
        <feMergeNode/>
        <feMergeNode in="SourceGraphic"/>
      </feMerge>
    </filter>
  </defs>
  
  <circle cx="100" cy="100" r="95" fill="url(#bgGrad)"/>
  <circle cx="100" cy="100" r="75" fill="rgba(10, 14, 26, 0.95)" stroke="url(#mainGrad)" stroke-width="3"/>
  
  <g opacity="0.15">
    <circle cx="100" cy="100" r="70" fill="none" stroke="#00ffcc" stroke-width="0.5"/>
    <circle cx="100" cy="100" r="65" fill="none" stroke="#00ffcc" stroke-width="0.5"/>
    <circle cx="100" cy="100" r="60" fill="none" stroke="#00ffcc" stroke-width="0.5"/>
  </g>
  
  <circle cx="100" cy="100" r="48" fill="rgba(0, 0, 0, 0.4)"/>
  
  <g filter="url(#glow)">
    <rect x="55" y="75" width="6" height="50" fill="url(#mainGrad)" rx="3"/>
    <rect x="65" y="65" width="6" height="70" fill="url(#mainGrad)" rx="3"/>
    <rect x="75" y="80" width="6" height="40" fill="url(#mainGrad)" rx="3"/>
    <rect x="139" y="75" width="6" height="50" fill="url(#mainGrad)" rx="3"/>
    <rect x="129" y="65" width="6" height="70" fill="url(#mainGrad)" rx="3"/>
    <rect x="119" y="80" width="6" height="40" fill="url(#mainGrad)" rx="3"/>
  </g>
  
  <g filter="url(#glow)">
    <circle cx="100" cy="100" r="35" fill="rgba(0, 255, 204, 0.1)" stroke="url(#mainGrad)" stroke-width="2.5"/>
    <polygon points="92,85 92,115 118,100" fill="url(#mainGrad)"/>
  </g>
  
  <g opacity="0.4">
    <path d="M 145 95 Q 150 100, 145 105" stroke="url(#mainGrad)" stroke-width="2.5" fill="none" stroke-linecap="round"/>
    <path d="M 152 90 Q 160 100, 152 110" stroke="url(#mainGrad)" stroke-width="2.5" fill="none" stroke-linecap="round"/>
    <path d="M 160 85 Q 170 100, 160 115" stroke="url(#mainGrad)" stroke-width="2.5" fill="none" stroke-linecap="round"/>
  </g>
  
  <circle cx="100" cy="45" r="3" fill="#00ffcc" opacity="0.8"/>
  <circle cx="125" cy="55" r="2.5" fill="#00ffcc" opacity="0.6"/>
  <circle cx="145" cy="75" r="2" fill="#00ffcc" opacity="0.5"/>
</svg>